<svg id="svg" xmlns="http://www.w3.org/2000/svg" xmlns:xlink="http://www.w3.org/1999/xlink"  width="2500" height="2500" viewBox="25, 25, 350,350" ><path id="path0" d="M91.759 25.360 C 80.744 27.361,71.639 33.941,66.655 43.501 C 61.815 52.787,62.109 42.618,62.109 200.391 L 62.109 344.922 63.865 350.504 C 67.466 361.957,77.775 371.331,90.375 374.613 C 95.886 376.049,298.817 376.384,307.813 374.973 C 321.799 372.778,333.292 362.035,337.146 347.554 C 338.115 343.913,339.037 125.417,338.086 124.892 C 337.979 124.833,322.949 124.524,304.688 124.205 C 264.085 123.497,259.536 122.569,250.081 113.064 C 240.197 103.129,238.991 97.324,238.500 57.350 L 238.106 25.246 217.686 24.734 C 181.321 23.822,97.944 24.236,91.759 25.360 M262.246 37.695 C 259.673 68.769,261.879 94.727,267.439 98.782 C 270.197 100.794,331.239 101.796,331.262 99.831 C 331.275 98.685,264.633 32.031,263.474 32.031 C 263.057 32.031,262.504 34.580,262.246 37.695 M169.620 89.067 C 189.513 92.779,202.775 113.220,198.133 133.015 C 190.967 163.569,152.124 171.880,133.331 146.879 C 113.405 120.372,136.890 82.958,169.620 89.067 M280.037 164.860 C 289.601 169.784,288.735 181.740,278.521 185.794 C 272.743 188.087,251.204 188.056,246.094 185.747 C 235.812 181.101,236.026 169.341,246.484 164.303 C 252.313 161.495,274.209 161.858,280.037 164.860 M183.146 176.971 C 203.646 182.311,212.025 195.993,212.081 224.219 C 212.133 250.879,214.613 249.609,162.500 249.609 L 123.047 249.609 119.772 247.733 C 113.950 244.398,112.865 240.623,113.017 224.219 C 113.267 197.229,120.315 184.511,138.581 178.091 C 147.655 174.902,172.777 174.270,183.146 176.971 M280.037 227.360 C 289.601 232.284,288.735 244.240,278.521 248.294 C 272.743 250.587,251.204 250.556,246.094 248.247 C 235.812 243.601,236.026 231.841,246.484 226.803 C 252.313 223.995,274.209 224.358,280.037 227.360 M280.007 289.844 C 289.128 294.540,288.754 306.058,279.343 310.320 L 275.391 312.109 199.219 312.109 C 128.754 312.109,122.864 312.009,120.601 310.770 C 110.880 305.448,111.217 294.587,121.252 289.818 L 126.172 287.481 201.193 287.686 L 276.215 287.891 280.007 289.844 " stroke="none" fill="" fill-rule="evenodd"></path></svg>
